<svg xmlns="http://www.w3.org/2000/svg" viewBox="0 0 512 512" width="512" height="512">
  <rect width="512" height="512" fill="#8B4513" rx="64"/>
  <g transform="translate(56, 56) scale(0.78)">
    <!-- Flute body -->
    <rect x="60" y="120" width="280" height="60" rx="30" fill="#D2691E"/>
    <rect x="80" y="130" width="240" height="40" rx="20" fill="#DEB887"/>
    
    <!-- Finger holes -->
    <circle cx="120" cy="150" r="12" fill="#2C1810"/>
    <circle cx="160" cy="150" r="12" fill="#2C1810"/>
    <circle cx="200" cy="150" r="12" fill="#2C1810"/>
    <circle cx="240" cy="150" r="12" fill="#2C1810"/>
    <circle cx="280" cy="150" r="12" fill="#2C1810"/>
    
    <!-- Music notes -->
    <g fill="#FFD700" transform="translate(300, 80)">
      <ellipse cx="20" cy="50" rx="15" ry="12"/>
      <rect x="33" y="5" width="4" height="50"/>
      <path d="M37 5 Q60 0 55 25 Q50 35 37 30" fill="#FFD700"/>
    </g>
    
    <g fill="#FFD700" transform="translate(340, 200)">
      <ellipse cx="15" cy="40" rx="12" ry="10"/>
      <rect x="25" y="5" width="3" height="40"/>
    </g>
  </g>
  
  <!-- Text -->
  <text x="256" y="400" font-family="Arial, sans-serif" font-size="64" font-weight="bold" fill="#FFD700" text-anchor="middle">NA FLUTE</text>
</svg>
